<mxfile host="app.diagrams.net" agent="Mozilla/5.0 (Windows NT 10.0; Win64; x64) AppleWebKit/537.36 (KHTML, like Gecko) Chrome/131.0.0.0 Safari/537.36" version="26.0.6">
  <diagram id="TI-GIG5H_0KkrUldOSP5" name="Page-1">
    <mxGraphModel dx="660" dy="943" grid="1" gridSize="10" guides="1" tooltips="1" connect="1" arrows="1" fold="1" page="1" pageScale="1" pageWidth="827" pageHeight="1169" math="0" shadow="0">
      <root>
        <mxCell id="0" />
        <mxCell id="1" parent="0" />
        <mxCell id="Y88noXIaMoA3FxD3ZUmG-16" value="rcssserver" style="rounded=0;whiteSpace=wrap;html=1;fontSize=15;strokeWidth=2;" parent="1" vertex="1">
          <mxGeometry x="280" y="140" width="200" height="120" as="geometry" />
        </mxCell>
        <mxCell id="Y88noXIaMoA3FxD3ZUmG-25" value="" style="ellipse;whiteSpace=wrap;html=1;aspect=fixed;fontSize=15;strokeWidth=0;fillColor=#000000;" parent="1" vertex="1">
          <mxGeometry x="165" y="216" width="10" height="10" as="geometry" />
        </mxCell>
        <mxCell id="Y88noXIaMoA3FxD3ZUmG-26" value="" style="ellipse;whiteSpace=wrap;html=1;aspect=fixed;fontSize=15;strokeWidth=0;fillColor=#000000;" parent="1" vertex="1">
          <mxGeometry x="165" y="233" width="10" height="10" as="geometry" />
        </mxCell>
        <mxCell id="Y88noXIaMoA3FxD3ZUmG-27" value="" style="ellipse;whiteSpace=wrap;html=1;aspect=fixed;fontSize=15;strokeWidth=0;fillColor=#000000;" parent="1" vertex="1">
          <mxGeometry x="165" y="250" width="10" height="10" as="geometry" />
        </mxCell>
        <mxCell id="Y88noXIaMoA3FxD3ZUmG-28" value="" style="ellipse;whiteSpace=wrap;html=1;aspect=fixed;fontSize=15;strokeWidth=0;fillColor=#000000;" parent="1" vertex="1">
          <mxGeometry x="585" y="216" width="10" height="10" as="geometry" />
        </mxCell>
        <mxCell id="Y88noXIaMoA3FxD3ZUmG-29" value="" style="ellipse;whiteSpace=wrap;html=1;aspect=fixed;fontSize=15;strokeWidth=0;fillColor=#000000;" parent="1" vertex="1">
          <mxGeometry x="585" y="233" width="10" height="10" as="geometry" />
        </mxCell>
        <mxCell id="Y88noXIaMoA3FxD3ZUmG-30" value="" style="ellipse;whiteSpace=wrap;html=1;aspect=fixed;fontSize=15;strokeWidth=0;fillColor=#000000;" parent="1" vertex="1">
          <mxGeometry x="585" y="250" width="10" height="10" as="geometry" />
        </mxCell>
        <mxCell id="Y88noXIaMoA3FxD3ZUmG-33" value="" style="endArrow=classic;startArrow=classic;html=1;rounded=0;fontSize=15;strokeWidth=2;entryX=0;entryY=0;entryDx=0;entryDy=0;exitX=1;exitY=0.5;exitDx=0;exitDy=0;" parent="1" source="7yj_Xj90nkkpukN7qVi3-17" target="Y88noXIaMoA3FxD3ZUmG-16" edge="1">
          <mxGeometry width="50" height="50" relative="1" as="geometry">
            <mxPoint x="220" y="111" as="sourcePoint" />
            <mxPoint x="280" y="120" as="targetPoint" />
          </mxGeometry>
        </mxCell>
        <mxCell id="Y88noXIaMoA3FxD3ZUmG-34" value="" style="endArrow=classic;startArrow=classic;html=1;rounded=0;fontSize=15;strokeWidth=2;exitX=1;exitY=0.5;exitDx=0;exitDy=0;entryX=0;entryY=0.5;entryDx=0;entryDy=0;" parent="1" target="Y88noXIaMoA3FxD3ZUmG-16" edge="1">
          <mxGeometry width="50" height="50" relative="1" as="geometry">
            <mxPoint x="220" y="181" as="sourcePoint" />
            <mxPoint x="280" y="170" as="targetPoint" />
          </mxGeometry>
        </mxCell>
        <mxCell id="Y88noXIaMoA3FxD3ZUmG-35" value="" style="endArrow=classic;startArrow=classic;html=1;rounded=0;fontSize=15;strokeWidth=2;exitX=1;exitY=0;exitDx=0;exitDy=0;entryX=0;entryY=0.75;entryDx=0;entryDy=0;" parent="1" target="Y88noXIaMoA3FxD3ZUmG-16" edge="1">
          <mxGeometry width="50" height="50" relative="1" as="geometry">
            <mxPoint x="220" y="270" as="sourcePoint" />
            <mxPoint x="240" y="230" as="targetPoint" />
          </mxGeometry>
        </mxCell>
        <mxCell id="Y88noXIaMoA3FxD3ZUmG-36" value="" style="endArrow=classic;startArrow=classic;html=1;rounded=0;fontSize=15;strokeWidth=2;exitX=1;exitY=0;exitDx=0;exitDy=0;entryX=0;entryY=0.5;entryDx=0;entryDy=0;" parent="1" source="Y88noXIaMoA3FxD3ZUmG-16" edge="1">
          <mxGeometry width="50" height="50" relative="1" as="geometry">
            <mxPoint x="400" y="339.9999999999999" as="sourcePoint" />
            <mxPoint x="540" y="111" as="targetPoint" />
          </mxGeometry>
        </mxCell>
        <mxCell id="Y88noXIaMoA3FxD3ZUmG-37" value="" style="endArrow=classic;startArrow=classic;html=1;rounded=0;fontSize=15;strokeWidth=2;exitX=0;exitY=0.5;exitDx=0;exitDy=0;entryX=1;entryY=0.5;entryDx=0;entryDy=0;" parent="1" target="Y88noXIaMoA3FxD3ZUmG-16" edge="1">
          <mxGeometry width="50" height="50" relative="1" as="geometry">
            <mxPoint x="540" y="180" as="sourcePoint" />
            <mxPoint x="490" y="210" as="targetPoint" />
          </mxGeometry>
        </mxCell>
        <mxCell id="Y88noXIaMoA3FxD3ZUmG-38" value="" style="endArrow=classic;startArrow=classic;html=1;rounded=0;fontSize=15;strokeWidth=2;entryX=1;entryY=0.75;entryDx=0;entryDy=0;exitX=0;exitY=0;exitDx=0;exitDy=0;" parent="1" target="Y88noXIaMoA3FxD3ZUmG-16" edge="1">
          <mxGeometry width="50" height="50" relative="1" as="geometry">
            <mxPoint x="540" y="270" as="sourcePoint" />
            <mxPoint x="470" y="309.9999999999999" as="targetPoint" />
          </mxGeometry>
        </mxCell>
        <mxCell id="Y88noXIaMoA3FxD3ZUmG-40" value="" style="endArrow=classic;startArrow=classic;html=1;rounded=0;fontSize=15;strokeWidth=2;entryX=0.5;entryY=1;entryDx=0;entryDy=0;exitX=0.5;exitY=0;exitDx=0;exitDy=0;" parent="1" source="7yj_Xj90nkkpukN7qVi3-1" target="Y88noXIaMoA3FxD3ZUmG-16" edge="1">
          <mxGeometry width="50" height="50" relative="1" as="geometry">
            <mxPoint x="380" y="345" as="sourcePoint" />
            <mxPoint x="490" y="270.0000000000001" as="targetPoint" />
          </mxGeometry>
        </mxCell>
        <mxCell id="Y88noXIaMoA3FxD3ZUmG-41" value="&lt;font style=&quot;font-size: 15px;&quot;&gt;通信&lt;/font&gt;" style="text;html=1;strokeColor=none;fillColor=none;align=center;verticalAlign=middle;whiteSpace=wrap;rounded=0;fontSize=15;" parent="1" vertex="1">
          <mxGeometry x="240" y="91" width="60" height="30" as="geometry" />
        </mxCell>
        <mxCell id="Y88noXIaMoA3FxD3ZUmG-42" value="&lt;font style=&quot;font-size: 15px;&quot;&gt;通信&lt;/font&gt;" style="text;html=1;strokeColor=none;fillColor=none;align=center;verticalAlign=middle;whiteSpace=wrap;rounded=0;fontSize=15;" parent="1" vertex="1">
          <mxGeometry x="460" y="91" width="60" height="30" as="geometry" />
        </mxCell>
        <mxCell id="Y88noXIaMoA3FxD3ZUmG-43" value="&lt;font style=&quot;font-size: 15px;&quot;&gt;通信&lt;/font&gt;" style="text;html=1;strokeColor=none;fillColor=none;align=center;verticalAlign=middle;whiteSpace=wrap;rounded=0;fontSize=15;" parent="1" vertex="1">
          <mxGeometry x="380" y="290" width="60" height="30" as="geometry" />
        </mxCell>
        <mxCell id="c_d9dMrfCw6E_HL2xUQk-3" value="" style="endArrow=classic;startArrow=classic;html=1;rounded=0;fontSize=15;strokeWidth=2;exitX=1;exitY=0;exitDx=0;exitDy=0;entryX=0.194;entryY=1.015;entryDx=0;entryDy=0;entryPerimeter=0;" parent="1" source="7yj_Xj90nkkpukN7qVi3-12" target="Y88noXIaMoA3FxD3ZUmG-16" edge="1">
          <mxGeometry width="50" height="50" relative="1" as="geometry">
            <mxPoint x="220" y="340" as="sourcePoint" />
            <mxPoint x="290" y="240" as="targetPoint" />
          </mxGeometry>
        </mxCell>
        <mxCell id="c_d9dMrfCw6E_HL2xUQk-4" value="" style="endArrow=classic;startArrow=classic;html=1;rounded=0;fontSize=15;strokeWidth=2;entryX=0.822;entryY=1.048;entryDx=0;entryDy=0;entryPerimeter=0;exitX=0;exitY=0;exitDx=0;exitDy=0;" parent="1" source="c_d9dMrfCw6E_HL2xUQk-5" target="Y88noXIaMoA3FxD3ZUmG-16" edge="1">
          <mxGeometry width="50" height="50" relative="1" as="geometry">
            <mxPoint x="540" y="370" as="sourcePoint" />
            <mxPoint x="340" y="270" as="targetPoint" />
          </mxGeometry>
        </mxCell>
        <mxCell id="c_d9dMrfCw6E_HL2xUQk-5" value="コーチ" style="rounded=1;whiteSpace=wrap;html=1;fontSize=15;strokeWidth=2;" parent="1" vertex="1">
          <mxGeometry x="540" y="340" width="100" height="60" as="geometry" />
        </mxCell>
        <mxCell id="7yj_Xj90nkkpukN7qVi3-1" value="soccerwindow2" style="rounded=1;whiteSpace=wrap;html=1;fontSize=15;strokeWidth=2;" parent="1" vertex="1">
          <mxGeometry x="280" y="340" width="200" height="60" as="geometry" />
        </mxCell>
        <mxCell id="7yj_Xj90nkkpukN7qVi3-2" value="" style="rounded=0;whiteSpace=wrap;html=1;fontSize=15;strokeWidth=2;" parent="1" vertex="1">
          <mxGeometry x="130" y="420" width="20" height="30" as="geometry" />
        </mxCell>
        <mxCell id="7yj_Xj90nkkpukN7qVi3-4" value="：サーバ" style="text;html=1;strokeColor=none;fillColor=none;align=left;verticalAlign=middle;whiteSpace=wrap;rounded=0;fontSize=15;" parent="1" vertex="1">
          <mxGeometry x="150" y="420" width="70" height="30" as="geometry" />
        </mxCell>
        <mxCell id="7yj_Xj90nkkpukN7qVi3-5" value="" style="rounded=1;whiteSpace=wrap;html=1;fontSize=15;strokeWidth=2;" parent="1" vertex="1">
          <mxGeometry x="240" y="420" width="20" height="30" as="geometry" />
        </mxCell>
        <mxCell id="7yj_Xj90nkkpukN7qVi3-6" value="：クライアント" style="text;html=1;strokeColor=none;fillColor=none;align=left;verticalAlign=middle;whiteSpace=wrap;rounded=0;fontSize=15;" parent="1" vertex="1">
          <mxGeometry x="260" y="420" width="120" height="30" as="geometry" />
        </mxCell>
        <mxCell id="7yj_Xj90nkkpukN7qVi3-12" value="コーチ" style="rounded=1;whiteSpace=wrap;html=1;fontSize=15;strokeWidth=2;" parent="1" vertex="1">
          <mxGeometry x="120" y="340" width="100" height="60" as="geometry" />
        </mxCell>
        <mxCell id="7yj_Xj90nkkpukN7qVi3-17" value="プレイヤー" style="rounded=1;whiteSpace=wrap;html=1;fontSize=15;strokeWidth=2;" parent="1" vertex="1">
          <mxGeometry x="120" y="81" width="100" height="60" as="geometry" />
        </mxCell>
        <mxCell id="keh6fd4Irn6TkMi-arDn-1" value="プレイヤー" style="rounded=1;whiteSpace=wrap;html=1;fontSize=15;strokeWidth=2;" vertex="1" parent="1">
          <mxGeometry x="120" y="150" width="100" height="60" as="geometry" />
        </mxCell>
        <mxCell id="keh6fd4Irn6TkMi-arDn-2" value="プレイヤー" style="rounded=1;whiteSpace=wrap;html=1;fontSize=15;strokeWidth=2;" vertex="1" parent="1">
          <mxGeometry x="120" y="270" width="100" height="60" as="geometry" />
        </mxCell>
        <mxCell id="keh6fd4Irn6TkMi-arDn-3" value="プレイヤー" style="rounded=1;whiteSpace=wrap;html=1;fontSize=15;strokeWidth=2;" vertex="1" parent="1">
          <mxGeometry x="540" y="81" width="100" height="60" as="geometry" />
        </mxCell>
        <mxCell id="keh6fd4Irn6TkMi-arDn-4" value="プレイヤー" style="rounded=1;whiteSpace=wrap;html=1;fontSize=15;strokeWidth=2;" vertex="1" parent="1">
          <mxGeometry x="540" y="150" width="100" height="60" as="geometry" />
        </mxCell>
        <mxCell id="keh6fd4Irn6TkMi-arDn-5" value="プレイヤー" style="rounded=1;whiteSpace=wrap;html=1;fontSize=15;strokeWidth=2;" vertex="1" parent="1">
          <mxGeometry x="540" y="270" width="100" height="60" as="geometry" />
        </mxCell>
      </root>
    </mxGraphModel>
  </diagram>
</mxfile>
